<svg xmlns="http://www.w3.org/2000/svg" viewBox="0 0 99 99"><defs><style>.cls-1,.cls-2{fill:#f7f06d;}.cls-2{stroke:#000;stroke-miterlimit:10;stroke-width:1.5px;}</style></defs><g id="圖層_2" data-name="圖層 2"><g id="圖層_1-2" data-name="圖層 1"><circle class="cls-1" cx="49.5" cy="49.5" r="49.5"/><rect class="cls-2" x="41.23" y="15.08" width="16.44" height="60.06" rx="8.22"/><rect class="cls-2" x="51.98" y="16.35" width="16.44" height="60.06" rx="8.22"/><rect class="cls-2" x="31.11" y="15.72" width="16.44" height="60.06" rx="8.22"/><path class="cls-2" d="M65.89,80.2h0A8.24,8.24,0,0,1,57.67,72V28.36a8.24,8.24,0,0,1,8.22-8.22h0a8.24,8.24,0,0,1,8.21,8.22L76,72C76,76.5,70.41,80.2,65.89,80.2Z"/><path class="cls-2" d="M31.11,80.2h0C26.59,80.2,21,76.5,21,72l1.9-43.62a8.24,8.24,0,0,1,8.21-8.22h0a8.24,8.24,0,0,1,8.22,8.22V72A8.24,8.24,0,0,1,31.11,80.2Z"/><path class="cls-2" d="M54.85,83.26a60.92,60.92,0,0,0,7.3-.34,10.81,10.81,0,0,0,5-1.57c1.88-1.15,1.88-2.73,1.88-4.31l-.64-43.62a8.22,8.22,0,1,0-16.43,0V77A8.18,8.18,0,0,0,54.85,83.26Z"/><path class="cls-2" d="M37.44,25.2a8.25,8.25,0,0,0-8.22,8.22L28.59,77c0,1.38-.61,2.6,1.59,3.83s8.26,2,10.69,2.59l.39.05,1.26-.05A8.2,8.2,0,0,0,45.66,77V33.42A8.25,8.25,0,0,0,37.44,25.2Z"/><path class="cls-2" d="M57.08,83.24a3.4,3.4,0,0,0,1.22-3l-.63-43.62a8.22,8.22,0,1,0-16.44,0L40.6,80.2c0,1.17.15,2.77,1.34,3.28S55.85,84.38,57.08,83.24Z"/></g></g></svg>