<svg xmlns="http://www.w3.org/2000/svg" viewBox="0 0 99 99"><defs><style>.cls-1{fill:#f7f06d;}.cls-2{fill:#0a0a0a;stroke:#f7f06d;}.cls-2,.cls-3{stroke-miterlimit:10;}.cls-3{fill:none;stroke:#000;stroke-width:1.5px;}</style></defs><g id="圖層_2" data-name="圖層 2"><g id="圖層_1-2" data-name="圖層 1"><circle class="cls-1" cx="49.5" cy="49.5" r="49.5"/><path d="M81,54.74a7.12,7.12,0,0,1,.47,2.52v5.66c0,4.73-4.64,8.58-10.35,8.58H27.85c-5.71,0-10.35-3.85-10.35-8.58V57.26a7.3,7.3,0,0,1,.09-1.14,18.72,18.72,0,0,0,12.2,4.35H67.43A18.26,18.26,0,0,0,81,54.74m.2-2.74c-2.61,4.13-7.82,7-13.8,7H29.79A16.64,16.64,0,0,1,17,53.33,8.7,8.7,0,0,0,16,57.26v5.66C16,68.46,21.33,73,27.85,73h43.3C77.67,73,83,68.46,83,62.92V57.26A9,9,0,0,0,81.23,52Z"/><path class="cls-2" d="M82.5,44.49a15,15,0,0,1-15,13H31A15.08,15.08,0,0,1,16.22,45.89,11.17,11.17,0,0,0,16,47.82v7.73a11.53,11.53,0,0,0,11.5,11.5h44A11.53,11.53,0,0,0,83,55.55V47.82A11.52,11.52,0,0,0,82.5,44.49Z"/><line class="cls-3" x1="60.2" y1="49.41" x2="66.53" y2="49.41"/><path class="cls-3" d="M23.89,37.24c0,6.69,4.78,12.17,10.64,12.17H54.45"/><path d="M67.51,28.5A13.44,13.44,0,0,1,81.12,41.72,13.44,13.44,0,0,1,67.51,55H31A13.44,13.44,0,0,1,17.35,41.72,13.44,13.44,0,0,1,31,28.5H67.51m0-1.5H31A15,15,0,0,0,15.85,41.72,15,15,0,0,0,31,56.45H67.51A15,15,0,0,0,82.62,41.72,15,15,0,0,0,67.51,27Z"/></g></g></svg>