<svg xmlns="http://www.w3.org/2000/svg" viewBox="0 0 99 99"><defs><style>.cls-1{fill:#f7f06d;}.cls-2{fill:none;stroke:#000;stroke-miterlimit:10;stroke-width:2px;}</style></defs><g id="圖層_2" data-name="圖層 2"><g id="圖層_1-2" data-name="圖層 1"><circle class="cls-1" cx="49.5" cy="49.5" r="49.5"/><path class="cls-2" d="M77.51,38.71c4.39,2.59,7,5.8,7,9.29,0,8.56-15.67,15.5-35,15.5s-35-6.94-35-15.5,15.67-15.5,35-15.5c1.36,0,2.69,0,4,.1"/><path class="cls-2" d="M84.5,60c0,8.56-15.67,15.5-35,15.5s-35-6.94-35-15.5c0-.11,0-.21,0-.32"/><line class="cls-2" x1="14.5" y1="59.36" x2="14.5" y2="60"/><line class="cls-2" x1="14.5" y1="48" x2="14.5" y2="59.36"/><line class="cls-2" x1="84.5" y1="48" x2="84.5" y2="60"/><path class="cls-2" d="M33.5,40.5s-8,1.79-9,6.25,4,6.25,4,6.25"/><line class="cls-2" x1="33.5" y1="54.5" x2="37.5" y2="55.5"/><path class="cls-2" d="M77.57,39.37C77.5,43.12,74.41,45,70.5,45s-7.14-1.88-7.07-5.63S70.5,30,70.5,30,77.64,35.62,77.57,39.37Z"/><path class="cls-2" d="M65.62,43.66A9.55,9.55,0,0,1,60.5,45c-4.69,0-8.58-2.63-8.5-7.88S60.5,24,60.5,24a41.78,41.78,0,0,1,7.1,8.65"/></g></g></svg>